TITLE ""
FILE "P1Q_j_1721-1734.mp3" MP3
  TRACK 01 AUDIO
    TITLE "P1Q_j_1721-1734_01"
    INDEX 01 00:00:00
  TRACK 02 AUDIO
    TITLE "P1Q_j_1721-1734_02"
    INDEX 01 00:00:14
  TRACK 03 AUDIO
    TITLE "P1Q_j_1721-1734_03"
    INDEX 01 00:02:01
  TRACK 04 AUDIO
    TITLE "P1Q_j_1721-1734_04"
    INDEX 01 00:02:21
  TRACK 05 AUDIO
    TITLE "P1Q_j_1721-1734_05"
    INDEX 01 00:06:56
  TRACK 06 AUDIO
    TITLE "P1Q_j_1721-1734_06"
    INDEX 01 00:07:01
  TRACK 07 AUDIO
    TITLE "P1Q_j_1721-1734_07"
    INDEX 01 00:12:23
  TRACK 08 AUDIO
    TITLE "P1Q_j_1721-1734_08"
    INDEX 01 00:12:68
  TRACK 09 AUDIO
    TITLE "P1Q_j_1721-1734_09"
    INDEX 01 00:14:38
  TRACK 10 AUDIO
    TITLE "P1Q_j_1721-1734_10"
    INDEX 01 00:14:57
  TRACK 11 AUDIO
    TITLE "P1Q_j_1721-1734_11"
    INDEX 01 00:16:50
  TRACK 12 AUDIO
    TITLE "P1Q_j_1721-1734_12"
    INDEX 01 00:16:70
  TRACK 13 AUDIO
    TITLE "P1Q_j_1721-1734_13"
    INDEX 01 00:20:29
  TRACK 14 AUDIO
    TITLE "P1Q_j_1721-1734_14"
    INDEX 01 00:20:74
  TRACK 15 AUDIO
    TITLE "P1Q_j_1721-1734_15"
    INDEX 01 00:22:31
  TRACK 16 AUDIO
    TITLE "P1Q_j_1721-1734_16"
    INDEX 01 00:22:51
  TRACK 17 AUDIO
    TITLE "P1Q_j_1721-1734_17"
    INDEX 01 00:24:28
  TRACK 18 AUDIO
    TITLE "P1Q_j_1721-1734_18"
    INDEX 01 00:24:46
  TRACK 19 AUDIO
    TITLE "P1Q_j_1721-1734_19"
    INDEX 01 00:28:13
  TRACK 20 AUDIO
    TITLE "P1Q_j_1721-1734_20"
    INDEX 01 00:28:58
  TRACK 21 AUDIO
    TITLE "P1Q_j_1721-1734_21"
    INDEX 01 00:30:33
  TRACK 22 AUDIO
    TITLE "P1Q_j_1721-1734_22"
    INDEX 01 00:30:54
  TRACK 23 AUDIO
    TITLE "P1Q_j_1721-1734_23"
    INDEX 01 00:34:19
  TRACK 24 AUDIO
    TITLE "P1Q_j_1721-1734_24"
    INDEX 01 00:34:39
  TRACK 25 AUDIO
    TITLE "P1Q_j_1721-1734_25"
    INDEX 01 00:39:26
  TRACK 26 AUDIO
    TITLE "P1Q_j_1721-1734_26"
    INDEX 01 00:39:71
  TRACK 27 AUDIO
    TITLE "P1Q_j_1721-1734_27"
    INDEX 01 00:41:33
  TRACK 28 AUDIO
    TITLE "P1Q_j_1721-1734_28"
    INDEX 01 00:41:52
  TRACK 29 AUDIO
    TITLE "P1Q_j_1721-1734_29"
    INDEX 01 00:47:20
  TRACK 30 AUDIO
    TITLE "P1Q_j_1721-1734_30"
    INDEX 01 00:47:39
  TRACK 31 AUDIO
    TITLE "P1Q_j_1721-1734_31"
    INDEX 01 00:53:10
  TRACK 32 AUDIO
    TITLE "P1Q_j_1721-1734_32"
    INDEX 01 00:53:57
  TRACK 33 AUDIO
    TITLE "P1Q_j_1721-1734_33"
    INDEX 01 00:55:31
  TRACK 34 AUDIO
    TITLE "P1Q_j_1721-1734_34"
    INDEX 01 00:55:52
  TRACK 35 AUDIO
    TITLE "P1Q_j_1721-1734_35"
    INDEX 01 01:01:45
  TRACK 36 AUDIO
    TITLE "P1Q_j_1721-1734_36"
    INDEX 01 01:01:65
  TRACK 37 AUDIO
    TITLE "P1Q_j_1721-1734_37"
    INDEX 01 01:08:26
  TRACK 38 AUDIO
    TITLE "P1Q_j_1721-1734_38"
    INDEX 01 01:08:71
  TRACK 39 AUDIO
    TITLE "P1Q_j_1721-1734_39"
    INDEX 01 01:10:38
  TRACK 40 AUDIO
    TITLE "P1Q_j_1721-1734_40"
    INDEX 01 01:10:58
  TRACK 41 AUDIO
    TITLE "P1Q_j_1721-1734_41"
    INDEX 01 01:16:47
  TRACK 42 AUDIO
    TITLE "P1Q_j_1721-1734_42"
    INDEX 01 01:16:66
  TRACK 43 AUDIO
    TITLE "P1Q_j_1721-1734_43"
    INDEX 01 01:21:66
  TRACK 44 AUDIO
    TITLE "P1Q_j_1721-1734_44"
    INDEX 01 01:22:38
  TRACK 45 AUDIO
    TITLE "P1Q_j_1721-1734_45"
    INDEX 01 01:23:70
  TRACK 46 AUDIO
    TITLE "P1Q_j_1721-1734_46"
    INDEX 01 01:24:17
  TRACK 47 AUDIO
    TITLE "P1Q_j_1721-1734_47"
    INDEX 01 01:28:07
  TRACK 48 AUDIO
    TITLE "P1Q_j_1721-1734_48"
    INDEX 01 01:28:26
  TRACK 49 AUDIO
    TITLE "P1Q_j_1721-1734_49"
    INDEX 01 01:34:27
  TRACK 50 AUDIO
    TITLE "P1Q_j_1721-1734_50"
    INDEX 01 01:34:74
  TRACK 51 AUDIO
    TITLE "P1Q_j_1721-1734_51"
    INDEX 01 01:37:27
  TRACK 52 AUDIO
    TITLE "P1Q_j_1721-1734_52"
    INDEX 01 01:37:47
  TRACK 53 AUDIO
    TITLE "P1Q_j_1721-1734_53"
    INDEX 01 01:39:44
  TRACK 54 AUDIO
    TITLE "P1Q_j_1721-1734_54"
    INDEX 01 01:39:64
  TRACK 55 AUDIO
    TITLE "P1Q_j_1721-1734_55"
    INDEX 01 01:44:63
  TRACK 56 AUDIO
    TITLE "P1Q_j_1721-1734_56"
    INDEX 01 01:45:35
  TRACK 57 AUDIO
    TITLE "P1Q_j_1721-1734_57"
    INDEX 01 01:46:69
  TRACK 58 AUDIO
    TITLE "P1Q_j_1721-1734_58"
    INDEX 01 01:47:14
  TRACK 59 AUDIO
    TITLE "P1Q_j_1721-1734_59"
    INDEX 01 01:50:03
  TRACK 60 AUDIO
    TITLE "P1Q_j_1721-1734_60"
    INDEX 01 01:50:20
  TRACK 61 AUDIO
    TITLE "P1Q_j_1721-1734_61"
    INDEX 01 01:54:47
  TRACK 62 AUDIO
    TITLE "P1Q_j_1721-1734_62"
    INDEX 01 01:55:17
  TRACK 63 AUDIO
    TITLE "P1Q_j_1721-1734_63"
    INDEX 01 01:56:40
  TRACK 64 AUDIO
    TITLE "P1Q_j_1721-1734_64"
    INDEX 01 01:56:62
  TRACK 65 AUDIO
    TITLE "P1Q_j_1721-1734_65"
    INDEX 01 02:00:24
  TRACK 66 AUDIO
    TITLE "P1Q_j_1721-1734_66"
    INDEX 01 02:00:42
  TRACK 67 AUDIO
    TITLE "P1Q_j_1721-1734_67"
    INDEX 01 02:03:70
  TRACK 68 AUDIO
    TITLE "P1Q_j_1721-1734_68"
    INDEX 01 02:04:40
  TRACK 69 AUDIO
    TITLE "P1Q_j_1721-1734_69"
    INDEX 01 02:05:61
  TRACK 70 AUDIO
    TITLE "P1Q_j_1721-1734_70"
    INDEX 01 02:06:07
  TRACK 71 AUDIO
    TITLE "P1Q_j_1721-1734_71"
    INDEX 01 02:07:36
  TRACK 72 AUDIO
    TITLE "P1Q_j_1721-1734_72"
    INDEX 01 02:07:56
  TRACK 73 AUDIO
    TITLE "P1Q_j_1721-1734_73"
    INDEX 01 02:11:13
  TRACK 74 AUDIO
    TITLE "P1Q_j_1721-1734_74"
    INDEX 01 02:11:58
  TRACK 75 AUDIO
    TITLE "P1Q_j_1721-1734_75"
    INDEX 01 02:13:10
  TRACK 76 AUDIO
    TITLE "P1Q_j_1721-1734_76"
    INDEX 01 02:13:31
  TRACK 77 AUDIO
    TITLE "P1Q_j_1721-1734_77"
    INDEX 01 02:19:30
  TRACK 78 AUDIO
    TITLE "P1Q_j_1721-1734_78"
    INDEX 01 02:19:49
  TRACK 79 AUDIO
    TITLE "P1Q_j_1721-1734_79"
    INDEX 01 02:25:30
  TRACK 80 AUDIO
    TITLE "P1Q_j_1721-1734_80"
    INDEX 01 02:26:02
  TRACK 81 AUDIO
    TITLE "P1Q_j_1721-1734_81"
    INDEX 01 02:27:17
  TRACK 82 AUDIO
    TITLE "P1Q_j_1721-1734_82"
    INDEX 01 02:27:39
  TRACK 83 AUDIO
    TITLE "P1Q_j_1721-1734_83"
    INDEX 01 02:29:52
  TRACK 84 AUDIO
    TITLE "P1Q_j_1721-1734_84"
    INDEX 01 02:29:71
  TRACK 85 AUDIO
    TITLE "P1Q_j_1721-1734_85"
    INDEX 01 02:32:66
